<mxfile host="app.diagrams.net" agent="Mozilla/5.0 (Windows NT 10.0; Win64; x64) AppleWebKit/537.36 (KHTML, like Gecko) Chrome/130.0.0.0 Safari/537.36" version="24.8.3">
  <diagram name="Animal Registry Class Diagram" id="0vn0WJT_RJ-0dw534hJN">
    <mxGraphModel dx="2074" dy="1106" grid="1" gridSize="10" guides="1" tooltips="1" connect="1" arrows="1" fold="1" page="1" pageScale="1" pageWidth="827" pageHeight="1169" math="0" shadow="0">
      <root>
        <mxCell id="0" />
        <mxCell id="1" parent="0" />
        <mxCell id="SRmglKeS6zWyhx884Cap-1" value="Animal&#xa;------------------&#xa;+ name: String&#xa;+ birthDate: Date&#xa;+ commands: List&lt;String&gt;&#xa;------------------&#xa;+ addCommand(command: String)&#xa;+ listCommands(): List&lt;String&gt;" style="swimlane;fontStyle=1;align=center;verticalAlign=top;childLayout=stackLayout;horizontal=1;startSize=130;horizontalStack=0;resizeParent=1;resizeParentMax=0;resizeLast=0;collapsible=1;marginBottom=0;" vertex="1" parent="1">
          <mxGeometry x="320" y="40" width="200" height="130" as="geometry" />
        </mxCell>
        <mxCell id="SRmglKeS6zWyhx884Cap-2" value="Pets&#xa;------------------&#xa;+ isVaccinated: Boolean&#xa;+ ownerName: String" style="swimlane;fontStyle=1;align=center;verticalAlign=top;childLayout=stackLayout;horizontal=1;startSize=90;horizontalStack=0;resizeParent=1;resizeParentMax=0;resizeLast=0;collapsible=1;marginBottom=0;" vertex="1" parent="1">
          <mxGeometry x="120" y="240" width="200" height="90" as="geometry" />
        </mxCell>
        <mxCell id="SRmglKeS6zWyhx884Cap-3" value="PackAnimals&#xa;------------------&#xa;+ maxLoadCapacity: Float&#xa;+ distanceLimit: Float" style="swimlane;fontStyle=1;align=center;verticalAlign=top;childLayout=stackLayout;horizontal=1;startSize=90;horizontalStack=0;resizeParent=1;resizeParentMax=0;resizeLast=0;collapsible=1;marginBottom=0;" vertex="1" parent="1">
          <mxGeometry x="520" y="240" width="200" height="90" as="geometry" />
        </mxCell>
        <mxCell id="SRmglKeS6zWyhx884Cap-4" value="Dog&#xa;------------------&#xa;+ breed: String&#xa;+ isServiceDog: Boolean" style="swimlane;fontStyle=1;align=center;verticalAlign=top;childLayout=stackLayout;horizontal=1;startSize=90;horizontalStack=0;resizeParent=1;resizeParentMax=0;resizeLast=0;collapsible=1;marginBottom=0;" vertex="1" parent="1">
          <mxGeometry x="40" y="400" width="160" height="90" as="geometry" />
        </mxCell>
        <mxCell id="SRmglKeS6zWyhx884Cap-5" value="Cat&#xa;------------------&#xa;+ color: String&#xa;+ isIndoor: Boolean" style="swimlane;fontStyle=1;align=center;verticalAlign=top;childLayout=stackLayout;horizontal=1;startSize=90;horizontalStack=0;resizeParent=1;resizeParentMax=0;resizeLast=0;collapsible=1;marginBottom=0;" vertex="1" parent="1">
          <mxGeometry x="240" y="400" width="160" height="90" as="geometry" />
        </mxCell>
        <mxCell id="SRmglKeS6zWyhx884Cap-6" value="Hamster&#xa;------------------&#xa;+ cageType: String&#xa;+ isAlbino: Boolean" style="swimlane;fontStyle=1;align=center;verticalAlign=top;childLayout=stackLayout;horizontal=1;startSize=90;horizontalStack=0;resizeParent=1;resizeParentMax=0;resizeLast=0;collapsible=1;marginBottom=0;" vertex="1" parent="1">
          <mxGeometry x="440" y="400" width="160" height="90" as="geometry" />
        </mxCell>
        <mxCell id="SRmglKeS6zWyhx884Cap-7" value="Horse&#xa;------------------&#xa;+ breed: String&#xa;+ isRacing: Boolean" style="swimlane;fontStyle=1;align=center;verticalAlign=top;childLayout=stackLayout;horizontal=1;startSize=90;horizontalStack=0;resizeParent=1;resizeParentMax=0;resizeLast=0;collapsible=1;marginBottom=0;" vertex="1" parent="1">
          <mxGeometry x="640" y="400" width="160" height="90" as="geometry" />
        </mxCell>
        <mxCell id="SRmglKeS6zWyhx884Cap-8" value="Camel&#xa;------------------&#xa;+ humps: Integer&#xa;+ waterReserve: Float" style="swimlane;fontStyle=1;align=center;verticalAlign=top;childLayout=stackLayout;horizontal=1;startSize=90;horizontalStack=0;resizeParent=1;resizeParentMax=0;resizeLast=0;collapsible=1;marginBottom=0;" vertex="1" parent="1">
          <mxGeometry x="840" y="400" width="160" height="90" as="geometry" />
        </mxCell>
        <mxCell id="SRmglKeS6zWyhx884Cap-9" value="Donkey&#xa;------------------&#xa;+ carryingCapacity: Float&#xa;+ isWorkingAnimal: Boolean" style="swimlane;fontStyle=1;align=center;verticalAlign=top;childLayout=stackLayout;horizontal=1;startSize=90;horizontalStack=0;resizeParent=1;resizeParentMax=0;resizeLast=0;collapsible=1;marginBottom=0;" vertex="1" parent="1">
          <mxGeometry x="1040" y="400" width="160" height="90" as="geometry" />
        </mxCell>
        <mxCell id="SRmglKeS6zWyhx884Cap-10" value="" style="endArrow=block;endSize=16;endFill=0;html=1;exitX=0.5;exitY=0;exitDx=0;exitDy=0;entryX=0.5;entryY=1;entryDx=0;entryDy=0;" edge="1" parent="1" source="SRmglKeS6zWyhx884Cap-2" target="SRmglKeS6zWyhx884Cap-1">
          <mxGeometry width="160" relative="1" as="geometry" />
        </mxCell>
        <mxCell id="SRmglKeS6zWyhx884Cap-11" value="" style="endArrow=block;endSize=16;endFill=0;html=1;exitX=0.5;exitY=0;exitDx=0;exitDy=0;entryX=0.5;entryY=1;entryDx=0;entryDy=0;" edge="1" parent="1" source="SRmglKeS6zWyhx884Cap-3" target="SRmglKeS6zWyhx884Cap-1">
          <mxGeometry width="160" relative="1" as="geometry" />
        </mxCell>
        <mxCell id="SRmglKeS6zWyhx884Cap-12" value="" style="endArrow=block;endSize=16;endFill=0;html=1;exitX=0.5;exitY=0;exitDx=0;exitDy=0;entryX=0.5;entryY=1;entryDx=0;entryDy=0;" edge="1" parent="1" source="SRmglKeS6zWyhx884Cap-4" target="SRmglKeS6zWyhx884Cap-2">
          <mxGeometry width="160" relative="1" as="geometry" />
        </mxCell>
        <mxCell id="SRmglKeS6zWyhx884Cap-13" value="" style="endArrow=block;endSize=16;endFill=0;html=1;exitX=0.5;exitY=0;exitDx=0;exitDy=0;entryX=0.5;entryY=1;entryDx=0;entryDy=0;" edge="1" parent="1" source="SRmglKeS6zWyhx884Cap-5" target="SRmglKeS6zWyhx884Cap-2">
          <mxGeometry width="160" relative="1" as="geometry" />
        </mxCell>
        <mxCell id="SRmglKeS6zWyhx884Cap-14" value="" style="endArrow=block;endSize=16;endFill=0;html=1;exitX=0.5;exitY=0;exitDx=0;exitDy=0;entryX=0.5;entryY=1;entryDx=0;entryDy=0;" edge="1" parent="1" source="SRmglKeS6zWyhx884Cap-6" target="SRmglKeS6zWyhx884Cap-2">
          <mxGeometry width="160" relative="1" as="geometry" />
        </mxCell>
        <mxCell id="SRmglKeS6zWyhx884Cap-15" value="" style="endArrow=block;endSize=16;endFill=0;html=1;exitX=0.5;exitY=0;exitDx=0;exitDy=0;entryX=0.5;entryY=1;entryDx=0;entryDy=0;" edge="1" parent="1" source="SRmglKeS6zWyhx884Cap-7" target="SRmglKeS6zWyhx884Cap-3">
          <mxGeometry width="160" relative="1" as="geometry" />
        </mxCell>
        <mxCell id="SRmglKeS6zWyhx884Cap-16" value="" style="endArrow=block;endSize=16;endFill=0;html=1;exitX=0.5;exitY=0;exitDx=0;exitDy=0;entryX=0.5;entryY=1;entryDx=0;entryDy=0;" edge="1" parent="1" source="SRmglKeS6zWyhx884Cap-8" target="SRmglKeS6zWyhx884Cap-3">
          <mxGeometry width="160" relative="1" as="geometry" />
        </mxCell>
        <mxCell id="SRmglKeS6zWyhx884Cap-17" value="" style="endArrow=block;endSize=16;endFill=0;html=1;exitX=0.5;exitY=0;exitDx=0;exitDy=0;entryX=0.5;entryY=1;entryDx=0;entryDy=0;" edge="1" parent="1" source="SRmglKeS6zWyhx884Cap-9" target="SRmglKeS6zWyhx884Cap-3">
          <mxGeometry width="160" relative="1" as="geometry" />
        </mxCell>
      </root>
    </mxGraphModel>
  </diagram>
</mxfile>
